<mxfile host="app.diagrams.net" modified="2023-07-02T11:23:56.420Z" agent="Mozilla/5.0 (Windows NT 10.0; Win64; x64) AppleWebKit/537.36 (KHTML, like Gecko) Chrome/114.0.0.0 Safari/537.36 Edg/114.0.1823.67" version="21.5.2" etag="-YAWqtfZIYarV68po7aV" type="github">
  <diagram name="Page-1" id="xD6TlpyiT5FZyBSKJZh1">
    <mxGraphModel>
      <root>
        <mxCell id="0" />
        <mxCell id="1" parent="0" />
      </root>
    </mxGraphModel>
  </diagram>
</mxfile>
